# Exported from ProBuilder
# http://www.procore3d.com/probuilder
# 8/10/2017 8:18:49 PM

mtllib ./SnapBackSticker.mtl
o SnapBackSticker

g Cylinder
v -0.3147982 0.2097969 -0.4948461 1 1 1
v -0.3205532 0.2175553 -0.497432 1 1 1
v -0.3236628 0.2154837 -0.4580556 1 1 1
v -0.3294178 0.2232421 -0.4606415 1 1 1
v -0.3236628 0.2154837 -0.4580556 1 1 1
v -0.3294178 0.2232421 -0.4606415 1 1 1
v -0.3087077 0.2360973 -0.4294918 1 1 1
v -0.3144628 0.2438557 -0.4320776 1 1 1
v -0.3087077 0.2360973 -0.4294918 1 1 1
v -0.3144628 0.2438557 -0.4320776 1 1 1
v -0.2786935 0.2595626 -0.425887 1 1 1
v -0.2844485 0.2673211 -0.4284729 1 1 1
v -0.2786935 0.2595626 -0.425887 1 1 1
v -0.2844485 0.2673211 -0.4284729 1 1 1
v -0.251202 0.2721339 -0.4493529 1 1 1
v -0.2569571 0.2798923 -0.4519388 1 1 1
v -0.251202 0.2721339 -0.4493529 1 1 1
v -0.2569571 0.2798923 -0.4519388 1 1 1
v -0.2423375 0.2664471 -0.4861434 1 1 1
v -0.2480925 0.2742055 -0.4887293 1 1 1
v -0.2423375 0.2664471 -0.4861434 1 1 1
v -0.2480925 0.2742055 -0.4887293 1 1 1
v -0.2572925 0.2458335 -0.5147073 1 1 1
v -0.2630475 0.2535919 -0.5172932 1 1 1
v -0.2572925 0.2458335 -0.5147073 1 1 1
v -0.2630475 0.2535919 -0.5172932 1 1 1
v -0.2873067 0.2223682 -0.518312 1 1 1
v -0.2930617 0.2301266 -0.5208979 1 1 1
v -0.2873067 0.2223682 -0.518312 1 1 1
v -0.2930617 0.2301266 -0.5208979 1 1 1
v -0.3147982 0.2097969 -0.4948461 1 1 1
v -0.3205532 0.2175553 -0.497432 1 1 1
v -0.3147982 0.2097969 -0.4948461 1 1 1
v -0.2830001 0.2409654 -0.4720995 1 1 1
v -0.3236628 0.2154837 -0.4580556 1 1 1
v -0.3205532 0.2175553 -0.497432 1 1 1
v -0.2887551 0.2487238 -0.4746854 1 1 1
v -0.3294178 0.2232421 -0.4606415 1 1 1
v -0.3236628 0.2154837 -0.4580556 1 1 1
v -0.2830001 0.2409654 -0.4720995 1 1 1
v -0.3087077 0.2360973 -0.4294918 1 1 1
v -0.3294178 0.2232421 -0.4606415 1 1 1
v -0.2887551 0.2487238 -0.4746854 1 1 1
v -0.3144628 0.2438557 -0.4320776 1 1 1
v -0.3087077 0.2360973 -0.4294918 1 1 1
v -0.2830001 0.2409654 -0.4720995 1 1 1
v -0.2786935 0.2595626 -0.425887 1 1 1
v -0.3144628 0.2438557 -0.4320776 1 1 1
v -0.2887551 0.2487238 -0.4746854 1 1 1
v -0.2844485 0.2673211 -0.4284729 1 1 1
v -0.2786935 0.2595626 -0.425887 1 1 1
v -0.2830001 0.2409654 -0.4720995 1 1 1
v -0.251202 0.2721339 -0.4493529 1 1 1
v -0.2844485 0.2673211 -0.4284729 1 1 1
v -0.2887551 0.2487238 -0.4746854 1 1 1
v -0.2569571 0.2798923 -0.4519388 1 1 1
v -0.251202 0.2721339 -0.4493529 1 1 1
v -0.2830001 0.2409654 -0.4720995 1 1 1
v -0.2423375 0.2664471 -0.4861434 1 1 1
v -0.2569571 0.2798923 -0.4519388 1 1 1
v -0.2887551 0.2487238 -0.4746854 1 1 1
v -0.2480925 0.2742055 -0.4887293 1 1 1
v -0.2423375 0.2664471 -0.4861434 1 1 1
v -0.2830001 0.2409654 -0.4720995 1 1 1
v -0.2572925 0.2458335 -0.5147073 1 1 1
v -0.2480925 0.2742055 -0.4887293 1 1 1
v -0.2887551 0.2487238 -0.4746854 1 1 1
v -0.2630475 0.2535919 -0.5172932 1 1 1
v -0.2572925 0.2458335 -0.5147073 1 1 1
v -0.2830001 0.2409654 -0.4720995 1 1 1
v -0.2873067 0.2223682 -0.518312 1 1 1
v -0.2630475 0.2535919 -0.5172932 1 1 1
v -0.2887551 0.2487238 -0.4746854 1 1 1
v -0.2930617 0.2301266 -0.5208979 1 1 1
v -0.2873067 0.2223682 -0.518312 1 1 1
v -0.2830001 0.2409654 -0.4720995 1 1 1
v -0.3147982 0.2097969 -0.4948461 1 1 1
v -0.2930617 0.2301266 -0.5208979 1 1 1
v -0.2887551 0.2487238 -0.4746854 1 1 1
v -0.3205532 0.2175553 -0.497432 1 1 1

vn -0.5875513 -0.5759188 -0.420303
vn -0.5875513 -0.5759188 -0.420303
vn -0.7513477 -0.4708406 0.2594981
vn -0.7513477 -0.4708406 0.2594981
vn -0.7513477 -0.4708406 0.2594981
vn -0.7513477 -0.4708406 0.2594981
vn -0.4750149 -0.08995035 0.7872887
vn -0.4750149 -0.08995035 0.7872887
vn -0.4750149 -0.08995035 0.7872887
vn -0.4750149 -0.08995035 0.7872887
vn 0.07957532 0.3436316 0.8538962
vn 0.07957532 0.3436316 0.8538962
vn 0.07957532 0.3436316 0.8538962
vn 0.07957532 0.3436316 0.8538962
vn 0.5875514 0.5759188 0.420303
vn 0.5875514 0.5759188 0.420303
vn 0.5875514 0.5759188 0.420303
vn 0.5875514 0.5759188 0.420303
vn 0.7513478 0.4708406 -0.2594981
vn 0.7513478 0.4708406 -0.2594981
vn 0.7513478 0.4708406 -0.2594981
vn 0.7513478 0.4708406 -0.2594981
vn 0.4750149 0.08995038 -0.7872887
vn 0.4750149 0.08995038 -0.7872887
vn 0.4750149 0.08995038 -0.7872887
vn 0.4750149 0.08995038 -0.7872887
vn -0.07957523 -0.3436316 -0.8538964
vn -0.07957523 -0.3436316 -0.8538964
vn -0.07957523 -0.3436316 -0.8538964
vn -0.07957523 -0.3436316 -0.8538964
vn -0.5875513 -0.5759188 -0.420303
vn -0.5875513 -0.5759188 -0.420303
vn 0.575501 -0.7758418 0.258589
vn 0.575501 -0.7758418 0.258589
vn 0.575501 -0.7758418 0.258589
vn -0.575501 0.7758418 -0.258589
vn -0.575501 0.7758418 -0.258589
vn -0.575501 0.7758418 -0.258589
vn 0.5755009 -0.7758418 0.2585889
vn 0.5755009 -0.7758418 0.2585889
vn 0.5755009 -0.7758418 0.2585889
vn -0.575501 0.7758418 -0.258589
vn -0.575501 0.7758418 -0.258589
vn -0.575501 0.7758418 -0.258589
vn 0.5755009 -0.7758418 0.2585889
vn 0.5755009 -0.7758418 0.2585889
vn 0.5755009 -0.7758418 0.2585889
vn -0.5755009 0.7758418 -0.2585889
vn -0.5755009 0.7758418 -0.2585889
vn -0.5755009 0.7758418 -0.2585889
vn 0.575501 -0.7758418 0.258589
vn 0.575501 -0.7758418 0.258589
vn 0.575501 -0.7758418 0.258589
vn -0.575501 0.7758418 -0.258589
vn -0.575501 0.7758418 -0.258589
vn -0.575501 0.7758418 -0.258589
vn 0.575501 -0.7758418 0.258589
vn 0.575501 -0.7758418 0.258589
vn 0.575501 -0.7758418 0.258589
vn -0.575501 0.7758418 -0.258589
vn -0.575501 0.7758418 -0.258589
vn -0.575501 0.7758418 -0.258589
vn 0.575501 -0.7758418 0.258589
vn 0.575501 -0.7758418 0.258589
vn 0.575501 -0.7758418 0.258589
vn -0.575501 0.7758418 -0.258589
vn -0.575501 0.7758418 -0.258589
vn -0.575501 0.7758418 -0.258589
vn 0.575501 -0.7758418 0.258589
vn 0.575501 -0.7758418 0.258589
vn 0.575501 -0.7758418 0.258589
vn -0.575501 0.7758418 -0.258589
vn -0.575501 0.7758418 -0.258589
vn -0.575501 0.7758418 -0.258589
vn 0.5755009 -0.7758418 0.2585889
vn 0.5755009 -0.7758418 0.2585889
vn 0.5755009 -0.7758418 0.2585889
vn -0.5755009 0.7758418 -0.2585889
vn -0.5755009 0.7758418 -0.2585889
vn -0.5755009 0.7758418 -0.2585889

vt -0.01913417 0
vt -0.01913417 0.01
vt 0.01913417 0
vt 0.01913417 0.01
vt -0.01913418 0
vt -0.01913418 0.01
vt 0.01913417 0
vt 0.01913417 0.01
vt -0.01913417 0
vt -0.01913417 0.01
vt 0.01913417 0
vt 0.01913417 0.01
vt -0.01913418 0
vt -0.01913418 0.01
vt 0.01913417 0
vt 0.01913417 0.01
vt -0.01913417 0
vt -0.01913417 0.01
vt 0.01913417 0
vt 0.01913417 0.01
vt -0.01913417 0
vt -0.01913417 0.01
vt 0.01913418 0
vt 0.01913418 0.01
vt -0.01913417 0
vt -0.01913417 0.01
vt 0.01913417 0
vt 0.01913417 0.01
vt -0.01913417 0
vt -0.01913417 0.01
vt 0.01913418 0
vt 0.01913418 0.01
vt -0.05 0
vt 0 0
vt -0.03535534 0.03535534
vt 0.05 0
vt 0 0
vt 0.03535534 0.03535534
vt -0.03535534 0.03535534
vt 0 0
vt 2.18557E-09 0.05
vt 0.03535534 0.03535534
vt 0 0
vt -2.18557E-09 0.05
vt 2.18557E-09 0.05
vt 0 0
vt 0.03535534 0.03535534
vt -2.18557E-09 0.05
vt 0 0
vt -0.03535534 0.03535534
vt 0.03535534 0.03535534
vt 0 0
vt 0.05 -4.371139E-09
vt -0.03535534 0.03535534
vt 0 0
vt -0.05 -4.371139E-09
vt 0.05 -4.371139E-09
vt 0 0
vt 0.03535534 -0.03535534
vt -0.05 -4.371139E-09
vt 0 0
vt -0.03535534 -0.03535534
vt 0.03535534 -0.03535534
vt 0 0
vt -5.962441E-10 -0.05
vt -0.03535534 -0.03535534
vt 0 0
vt 5.962441E-10 -0.05
vt -5.962441E-10 -0.05
vt 0 0
vt -0.03535533 -0.03535534
vt 5.962441E-10 -0.05
vt 0 0
vt 0.03535533 -0.03535534
vt -0.03535533 -0.03535534
vt 0 0
vt -0.05 0
vt 0.03535533 -0.03535534
vt 0 0
vt 0.05 0

g Cylinder
usemtl Default_Prototype
f 3/3/3 4/4/4 2/2/2 1/1/1
f 7/7/7 8/8/8 6/6/6 5/5/5
f 11/11/11 12/12/12 10/10/10 9/9/9
f 15/15/15 16/16/16 14/14/14 13/13/13
f 19/19/19 20/20/20 18/18/18 17/17/17
f 23/23/23 24/24/24 22/22/22 21/21/21
f 27/27/27 28/28/28 26/26/26 25/25/25
f 31/31/31 32/32/32 30/30/30 29/29/29
f 33/33/33 34/34/34 35/35/35
f 39/39/39 40/40/40 41/41/41
f 45/45/45 46/46/46 47/47/47
f 51/51/51 52/52/52 53/53/53
f 57/57/57 58/58/58 59/59/59
f 63/63/63 64/64/64 65/65/65
f 69/69/69 70/70/70 71/71/71
f 75/75/75 76/76/76 77/77/77
f 38/38/38 37/37/37 36/36/36
f 44/44/44 43/43/43 42/42/42
f 50/50/50 49/49/49 48/48/48
f 56/56/56 55/55/55 54/54/54
f 62/62/62 61/61/61 60/60/60
f 68/68/68 67/67/67 66/66/66
f 74/74/74 73/73/73 72/72/72
f 80/80/80 79/79/79 78/78/78

