# Exported from ProBuilder
# http://www.procore3d.com/probuilder
# 8/10/2017 6:39:02 PM

mtllib ./Top.mtl
o Top

g Cylinder
v -0.3 0.3592639 -0.1014197 1 1 1
v -0.3 0.8422268 -0.2308293 1 1 1
v -0.2771639 0.3889776 0.009473429 1 1 1
v -0.2771639 0.8719406 -0.1199361 1 1 1
v -0.2771639 0.3889776 0.009473429 1 1 1
v -0.2771639 0.8719406 -0.1199361 1 1 1
v -0.212132 0.4141677 0.1034841 1 1 1
v -0.212132 0.8971306 -0.02592545 1 1 1
v -0.212132 0.4141677 0.1034841 1 1 1
v -0.212132 0.8971306 -0.02592545 1 1 1
v -0.114805 0.4309992 0.1663 1 1 1
v -0.114805 0.9139621 0.03689048 1 1 1
v -0.114805 0.4309992 0.1663 1 1 1
v -0.114805 0.9139621 0.03689048 1 1 1
v 1.311342E-08 0.4369096 0.188358 1 1 1
v 1.311342E-08 0.9198725 0.05894851 1 1 1
v 1.311342E-08 0.4369096 0.188358 1 1 1
v 1.311342E-08 0.9198725 0.05894851 1 1 1
v 0.114805 0.4309992 0.1663 1 1 1
v 0.114805 0.9139621 0.03689051 1 1 1
v 0.114805 0.4309992 0.1663 1 1 1
v 0.114805 0.9139621 0.03689051 1 1 1
v 0.212132 0.4141677 0.1034841 1 1 1
v 0.212132 0.8971306 -0.02592545 1 1 1
v 0.212132 0.4141677 0.1034841 1 1 1
v 0.212132 0.8971306 -0.02592545 1 1 1
v 0.2771639 0.3889776 0.009473437 1 1 1
v 0.2771639 0.8719406 -0.1199361 1 1 1
v 0.2771639 0.3889776 0.009473437 1 1 1
v 0.2771639 0.8719406 -0.1199361 1 1 1
v 0.3 0.3592639 -0.1014198 1 1 1
v 0.3 0.8422268 -0.2308293 1 1 1
v 0.3 0.3592639 -0.1014198 1 1 1
v 0.3 0.8422268 -0.2308293 1 1 1
v 0.2771639 0.3295501 -0.2123129 1 1 1
v 0.2771639 0.8125131 -0.3417224 1 1 1
v 0.2771639 0.3295501 -0.2123129 1 1 1
v 0.2771639 0.8125131 -0.3417224 1 1 1
v 0.2121321 0.3043601 -0.3063235 1 1 1
v 0.2121321 0.787323 -0.4357331 1 1 1
v 0.2121321 0.3043601 -0.3063235 1 1 1
v 0.2121321 0.787323 -0.4357331 1 1 1
v 0.1148051 0.2875286 -0.3691395 1 1 1
v 0.1148051 0.7704915 -0.498549 1 1 1
v 0.1148051 0.2875286 -0.3691395 1 1 1
v 0.1148051 0.7704915 -0.498549 1 1 1
v -3.577464E-09 0.2816181 -0.3911975 1 1 1
v -3.577464E-09 0.7645811 -0.5206071 1 1 1
v -3.577464E-09 0.2816181 -0.3911975 1 1 1
v -3.577464E-09 0.7645811 -0.5206071 1 1 1
v -0.1148051 0.2875286 -0.3691395 1 1 1
v -0.1148051 0.7704915 -0.498549 1 1 1
v -0.1148051 0.2875286 -0.3691395 1 1 1
v -0.1148051 0.7704915 -0.498549 1 1 1
v -0.212132 0.30436 -0.3063236 1 1 1
v -0.212132 0.787323 -0.4357331 1 1 1
v -0.212132 0.30436 -0.3063236 1 1 1
v -0.212132 0.787323 -0.4357331 1 1 1
v -0.2771639 0.3295501 -0.2123129 1 1 1
v -0.2771639 0.8125131 -0.3417224 1 1 1
v -0.2771639 0.3295501 -0.2123129 1 1 1
v -0.2771639 0.8125131 -0.3417224 1 1 1
v -0.3 0.3592639 -0.1014197 1 1 1
v -0.3 0.8422268 -0.2308293 1 1 1
v -0.3 0.3592639 -0.1014197 1 1 1
v 0 0.3592639 -0.1014197 1 1 1
v -0.2771639 0.3889776 0.009473429 1 1 1
v -0.3 0.8422268 -0.2308293 1 1 1
v 0 0.8422268 -0.2308293 1 1 1
v -0.2771639 0.8719406 -0.1199361 1 1 1
v -0.2771639 0.3889776 0.009473429 1 1 1
v 0 0.3592639 -0.1014197 1 1 1
v -0.212132 0.4141677 0.1034841 1 1 1
v -0.2771639 0.8719406 -0.1199361 1 1 1
v 0 0.8422268 -0.2308293 1 1 1
v -0.212132 0.8971306 -0.02592545 1 1 1
v -0.212132 0.4141677 0.1034841 1 1 1
v 0 0.3592639 -0.1014197 1 1 1
v -0.114805 0.4309992 0.1663 1 1 1
v -0.212132 0.8971306 -0.02592545 1 1 1
v 0 0.8422268 -0.2308293 1 1 1
v -0.114805 0.9139621 0.03689048 1 1 1
v -0.114805 0.4309992 0.1663 1 1 1
v 0 0.3592639 -0.1014197 1 1 1
v 1.311342E-08 0.4369096 0.188358 1 1 1
v -0.114805 0.9139621 0.03689048 1 1 1
v 0 0.8422268 -0.2308293 1 1 1
v 1.311342E-08 0.9198725 0.05894851 1 1 1
v 1.311342E-08 0.4369096 0.188358 1 1 1
v 0 0.3592639 -0.1014197 1 1 1
v 0.114805 0.4309992 0.1663 1 1 1
v 1.311342E-08 0.9198725 0.05894851 1 1 1
v 0 0.8422268 -0.2308293 1 1 1
v 0.114805 0.9139621 0.03689051 1 1 1
v 0.114805 0.4309992 0.1663 1 1 1
v 0 0.3592639 -0.1014197 1 1 1
v 0.212132 0.4141677 0.1034841 1 1 1
v 0.114805 0.9139621 0.03689051 1 1 1
v 0 0.8422268 -0.2308293 1 1 1
v 0.212132 0.8971306 -0.02592545 1 1 1
v 0.212132 0.4141677 0.1034841 1 1 1
v 0 0.3592639 -0.1014197 1 1 1
v 0.2771639 0.3889776 0.009473437 1 1 1
v 0.212132 0.8971306 -0.02592545 1 1 1
v 0 0.8422268 -0.2308293 1 1 1
v 0.2771639 0.8719406 -0.1199361 1 1 1
v 0.2771639 0.3889776 0.009473437 1 1 1
v 0 0.3592639 -0.1014197 1 1 1
v 0.3 0.3592639 -0.1014198 1 1 1
v 0.2771639 0.8719406 -0.1199361 1 1 1
v 0 0.8422268 -0.2308293 1 1 1
v 0.3 0.8422268 -0.2308293 1 1 1
v 0.3 0.3592639 -0.1014198 1 1 1
v 0 0.3592639 -0.1014197 1 1 1
v 0.2771639 0.3295501 -0.2123129 1 1 1
v 0.3 0.8422268 -0.2308293 1 1 1
v 0 0.8422268 -0.2308293 1 1 1
v 0.2771639 0.8125131 -0.3417224 1 1 1
v 0.2771639 0.3295501 -0.2123129 1 1 1
v 0 0.3592639 -0.1014197 1 1 1
v 0.2121321 0.3043601 -0.3063235 1 1 1
v 0.2771639 0.8125131 -0.3417224 1 1 1
v 0 0.8422268 -0.2308293 1 1 1
v 0.2121321 0.787323 -0.4357331 1 1 1
v 0.2121321 0.3043601 -0.3063235 1 1 1
v 0 0.3592639 -0.1014197 1 1 1
v 0.1148051 0.2875286 -0.3691395 1 1 1
v 0.2121321 0.787323 -0.4357331 1 1 1
v 0 0.8422268 -0.2308293 1 1 1
v 0.1148051 0.7704915 -0.498549 1 1 1
v 0.1148051 0.2875286 -0.3691395 1 1 1
v 0 0.3592639 -0.1014197 1 1 1
v -3.577464E-09 0.2816181 -0.3911975 1 1 1
v 0.1148051 0.7704915 -0.498549 1 1 1
v 0 0.8422268 -0.2308293 1 1 1
v -3.577464E-09 0.7645811 -0.5206071 1 1 1
v -3.577464E-09 0.2816181 -0.3911975 1 1 1
v 0 0.3592639 -0.1014197 1 1 1
v -0.1148051 0.2875286 -0.3691395 1 1 1
v -3.577464E-09 0.7645811 -0.5206071 1 1 1
v 0 0.8422268 -0.2308293 1 1 1
v -0.1148051 0.7704915 -0.498549 1 1 1
v -0.1148051 0.2875286 -0.3691395 1 1 1
v 0 0.3592639 -0.1014197 1 1 1
v -0.212132 0.30436 -0.3063236 1 1 1
v -0.1148051 0.7704915 -0.498549 1 1 1
v 0 0.8422268 -0.2308293 1 1 1
v -0.212132 0.787323 -0.4357331 1 1 1
v -0.212132 0.30436 -0.3063236 1 1 1
v 0 0.3592639 -0.1014197 1 1 1
v -0.2771639 0.3295501 -0.2123129 1 1 1
v -0.212132 0.787323 -0.4357331 1 1 1
v 0 0.8422268 -0.2308293 1 1 1
v -0.2771639 0.8125131 -0.3417224 1 1 1
v -0.2771639 0.3295501 -0.2123129 1 1 1
v 0 0.3592639 -0.1014197 1 1 1
v -0.3 0.3592639 -0.1014197 1 1 1
v -0.2771639 0.8125131 -0.3417224 1 1 1
v 0 0.8422268 -0.2308293 1 1 1
v -0.3 0.8422268 -0.2308293 1 1 1

vn -0.9807854 3.085364E-08 1.151473E-07
vn -0.9807854 3.085364E-08 1.151473E-07
vn -0.9061275 0.09714265 0.3625413
vn -0.9061275 0.09714265 0.3625413
vn -0.9061275 0.09714265 0.3625413
vn -0.9061275 0.09714265 0.3625413
vn -0.6935199 0.1794962 0.6698889
vn -0.6935199 0.1794962 0.6698889
vn -0.6935199 0.1794962 0.6698889
vn -0.6935199 0.1794962 0.6698889
vn -0.3753303 0.2345231 0.8752519
vn -0.3753303 0.2345231 0.8752519
vn -0.3753303 0.2345231 0.8752519
vn -0.3753303 0.2345231 0.8752519
vn -8.195639E-08 0.2538459 0.9473658
vn -8.195639E-08 0.2538459 0.9473658
vn -8.195639E-08 0.2538459 0.9473658
vn -8.195639E-08 0.2538459 0.9473658
vn 0.3753303 0.2345231 0.8752519
vn 0.3753303 0.2345231 0.8752519
vn 0.3753303 0.2345231 0.8752519
vn 0.3753303 0.2345231 0.8752519
vn 0.6935199 0.1794962 0.6698889
vn 0.6935199 0.1794962 0.6698889
vn 0.6935199 0.1794962 0.6698889
vn 0.6935199 0.1794962 0.6698889
vn 0.9061275 0.09714264 0.3625413
vn 0.9061275 0.09714264 0.3625413
vn 0.9061275 0.09714264 0.3625413
vn 0.9061275 0.09714264 0.3625413
vn 0.9807853 -1.735517E-08 -6.477038E-08
vn 0.9807853 -1.735517E-08 -6.477038E-08
vn 0.9807853 -1.735517E-08 -6.477038E-08
vn 0.9807853 -1.735517E-08 -6.477038E-08
vn 0.9061275 -0.09714265 -0.3625413
vn 0.9061275 -0.09714265 -0.3625413
vn 0.9061275 -0.09714265 -0.3625413
vn 0.9061275 -0.09714265 -0.3625413
vn 0.69352 -0.1794962 -0.6698887
vn 0.69352 -0.1794962 -0.6698887
vn 0.69352 -0.1794962 -0.6698887
vn 0.69352 -0.1794962 -0.6698887
vn 0.3753304 -0.234523 -0.8752518
vn 0.3753304 -0.234523 -0.8752518
vn 0.3753304 -0.234523 -0.8752518
vn 0.3753304 -0.234523 -0.8752518
vn -1.192093E-07 -0.2538459 -0.9473658
vn -1.192093E-07 -0.2538459 -0.9473658
vn -1.192093E-07 -0.2538459 -0.9473658
vn -1.192093E-07 -0.2538459 -0.9473658
vn -0.3753303 -0.2345231 -0.8752519
vn -0.3753303 -0.2345231 -0.8752519
vn -0.3753303 -0.2345231 -0.8752519
vn -0.3753303 -0.2345231 -0.8752519
vn -0.6935198 -0.1794962 -0.669889
vn -0.6935198 -0.1794962 -0.669889
vn -0.6935198 -0.1794962 -0.669889
vn -0.6935198 -0.1794962 -0.669889
vn -0.9061275 -0.09714265 -0.3625413
vn -0.9061275 -0.09714265 -0.3625413
vn -0.9061275 -0.09714265 -0.3625413
vn -0.9061275 -0.09714265 -0.3625413
vn -0.9807854 3.085364E-08 1.151473E-07
vn -0.9807854 3.085364E-08 1.151473E-07
vn 0 -0.9659259 0.2588191
vn 0 -0.9659259 0.2588191
vn 0 -0.9659259 0.2588191
vn 0 0.9659259 -0.2588191
vn 0 0.9659259 -0.2588191
vn 0 0.9659259 -0.2588191
vn 0 -0.9659259 0.2588191
vn 0 -0.9659259 0.2588191
vn 0 -0.9659259 0.2588191
vn 0 0.9659259 -0.2588191
vn 0 0.9659259 -0.2588191
vn 0 0.9659259 -0.2588191
vn 0 -0.9659259 0.2588191
vn 0 -0.9659259 0.2588191
vn 0 -0.9659259 0.2588191
vn 0 0.9659259 -0.2588191
vn 0 0.9659259 -0.2588191
vn 0 0.9659259 -0.2588191
vn 0 -0.9659259 0.2588191
vn 0 -0.9659259 0.2588191
vn 0 -0.9659259 0.2588191
vn 0 0.9659259 -0.2588191
vn 0 0.9659259 -0.2588191
vn 0 0.9659259 -0.2588191
vn 0 -0.9659259 0.2588191
vn 0 -0.9659259 0.2588191
vn 0 -0.9659259 0.2588191
vn 0 0.9659259 -0.2588191
vn 0 0.9659259 -0.2588191
vn 0 0.9659259 -0.2588191
vn 0 -0.9659259 0.2588191
vn 0 -0.9659259 0.2588191
vn 0 -0.9659259 0.2588191
vn 0 0.9659259 -0.2588191
vn 0 0.9659259 -0.2588191
vn 0 0.9659259 -0.2588191
vn 0 -0.9659259 0.2588191
vn 0 -0.9659259 0.2588191
vn 0 -0.9659259 0.2588191
vn 0 0.9659259 -0.2588191
vn 0 0.9659259 -0.2588191
vn 0 0.9659259 -0.2588191
vn 0 -0.9659259 0.2588191
vn 0 -0.9659259 0.2588191
vn 0 -0.9659259 0.2588191
vn 0 0.9659259 -0.2588191
vn 0 0.9659259 -0.2588191
vn 0 0.9659259 -0.2588191
vn 0 -0.9659259 0.2588191
vn 0 -0.9659259 0.2588191
vn 0 -0.9659259 0.2588191
vn 0 0.9659259 -0.2588191
vn 0 0.9659259 -0.2588191
vn 0 0.9659259 -0.2588191
vn 0 -0.9659259 0.2588191
vn 0 -0.9659259 0.2588191
vn 0 -0.9659259 0.2588191
vn 0 0.9659259 -0.2588191
vn 0 0.9659259 -0.2588191
vn 0 0.9659259 -0.2588191
vn 0 -0.9659259 0.2588191
vn 0 -0.9659259 0.2588191
vn 0 -0.9659259 0.2588191
vn 0 0.9659259 -0.2588191
vn 0 0.9659259 -0.2588191
vn 0 0.9659259 -0.2588191
vn 0 -0.9659259 0.2588191
vn 0 -0.9659259 0.2588191
vn 0 -0.9659259 0.2588191
vn 0 0.9659259 -0.2588191
vn 0 0.9659259 -0.2588191
vn 0 0.9659259 -0.2588191
vn 0 -0.9659259 0.2588191
vn 0 -0.9659259 0.2588191
vn 0 -0.9659259 0.2588191
vn 0 0.9659259 -0.2588191
vn 0 0.9659259 -0.2588191
vn 0 0.9659259 -0.2588191
vn 0 -0.9659259 0.2588191
vn 0 -0.9659259 0.2588191
vn 0 -0.9659259 0.2588191
vn 0 0.9659259 -0.2588191
vn 0 0.9659259 -0.2588191
vn 0 0.9659259 -0.2588191
vn 0 -0.9659259 0.2588191
vn 0 -0.9659259 0.2588191
vn 0 -0.9659259 0.2588191
vn 0 0.9659259 -0.2588191
vn 0 0.9659259 -0.2588191
vn 0 0.9659259 -0.2588191
vn 0 -0.9659258 0.258819
vn 0 -0.9659258 0.258819
vn 0 -0.9659258 0.258819
vn 0 0.9659258 -0.258819
vn 0 0.9659258 -0.258819
vn 0 0.9659258 -0.258819

vt -0.05852712 0
vt -0.05852712 0.5
vt 0.05852709 0
vt 0.05852709 0.5
vt -0.05852709 0
vt -0.05852709 0.5
vt 0.05852709 0
vt 0.05852709 0.5
vt -0.05852709 0
vt -0.05852709 0.5
vt 0.0585271 0
vt 0.0585271 0.5
vt -0.05852709 0
vt -0.05852709 0.5
vt 0.05852713 0
vt 0.05852713 0.5
vt -0.05852704 0
vt -0.05852704 0.5
vt 0.05852712 0
vt 0.05852712 0.5
vt -0.05852717 0
vt -0.05852717 0.5
vt 0.05852705 0
vt 0.05852705 0.5
vt -0.05852707 0
vt -0.05852707 0.5
vt 0.05852712 0
vt 0.05852712 0.5
vt -0.05852712 0
vt -0.05852712 0.5
vt 0.05852713 0
vt 0.05852713 0.5
vt -0.0585271 0
vt -0.0585271 0.5
vt 0.05852707 0
vt 0.05852707 0.5
vt -0.0585271 0
vt -0.0585271 0.5
vt 0.05852707 0
vt 0.05852707 0.5
vt -0.05852704 0
vt -0.05852704 0.5
vt 0.05852714 0
vt 0.05852714 0.5
vt -0.05852715 0
vt -0.05852715 0.5
vt 0.0585271 0
vt 0.0585271 0.5
vt -0.05852716 0
vt -0.05852716 0.5
vt 0.05852709 0
vt 0.05852709 0.5
vt -0.05852701 0
vt -0.05852701 0.5
vt 0.05852708 0
vt 0.05852708 0.5
vt -0.05852708 0
vt -0.05852708 0.5
vt 0.05852718 0
vt 0.05852718 0.5
vt -0.05852715 0
vt -0.05852715 0.5
vt 0.05852704 0
vt 0.05852704 0.5
vt -0.3 0
vt 0 0
vt -0.2771639 0.114805
vt 0.3 0
vt 0 0
vt 0.2771639 0.114805
vt -0.2771639 0.114805
vt 0 0
vt -0.212132 0.212132
vt 0.2771639 0.114805
vt 0 0
vt 0.212132 0.212132
vt -0.212132 0.212132
vt 0 0
vt -0.114805 0.2771639
vt 0.212132 0.212132
vt 0 0
vt 0.114805 0.2771639
vt -0.114805 0.2771639
vt 0 0
vt 1.311342E-08 0.3
vt 0.114805 0.2771639
vt 0 0
vt -1.311342E-08 0.3
vt 1.311342E-08 0.3
vt 0 0
vt 0.114805 0.2771639
vt -1.311342E-08 0.3
vt 0 0
vt -0.114805 0.2771639
vt 0.114805 0.2771639
vt 0 0
vt 0.212132 0.212132
vt -0.114805 0.2771639
vt 0 0
vt -0.212132 0.212132
vt 0.212132 0.212132
vt 0 0
vt 0.2771639 0.1148051
vt -0.212132 0.212132
vt 0 0
vt -0.2771639 0.1148051
vt 0.2771639 0.1148051
vt 0 0
vt 0.3 -2.622683E-08
vt -0.2771639 0.1148051
vt 0 0
vt -0.3 -2.622683E-08
vt 0.3 -2.622683E-08
vt 0 0
vt 0.2771639 -0.114805
vt -0.3 -2.622683E-08
vt 0 0
vt -0.2771639 -0.114805
vt 0.2771639 -0.114805
vt 0 0
vt 0.2121321 -0.212132
vt -0.2771639 -0.114805
vt 0 0
vt -0.2121321 -0.212132
vt 0.2121321 -0.212132
vt 0 0
vt 0.1148051 -0.2771639
vt -0.2121321 -0.212132
vt 0 0
vt -0.1148051 -0.2771639
vt 0.1148051 -0.2771639
vt 0 0
vt -3.577464E-09 -0.3
vt -0.1148051 -0.2771639
vt 0 0
vt 3.577464E-09 -0.3
vt -3.577464E-09 -0.3
vt 0 0
vt -0.1148051 -0.2771638
vt 3.577464E-09 -0.3
vt 0 0
vt 0.1148051 -0.2771638
vt -0.1148051 -0.2771638
vt 0 0
vt -0.212132 -0.2121321
vt 0.1148051 -0.2771638
vt 0 0
vt 0.212132 -0.2121321
vt -0.212132 -0.2121321
vt 0 0
vt -0.2771639 -0.114805
vt 0.212132 -0.2121321
vt 0 0
vt 0.2771639 -0.114805
vt -0.2771639 -0.114805
vt 0 0
vt -0.3 0
vt 0.2771639 -0.114805
vt 0 0
vt 0.3 0

g Cylinder
usemtl MatteBlack
f 3/3/3 4/4/4 2/2/2 1/1/1
f 7/7/7 8/8/8 6/6/6 5/5/5
f 11/11/11 12/12/12 10/10/10 9/9/9
f 15/15/15 16/16/16 14/14/14 13/13/13
f 19/19/19 20/20/20 18/18/18 17/17/17
f 23/23/23 24/24/24 22/22/22 21/21/21
f 27/27/27 28/28/28 26/26/26 25/25/25
f 31/31/31 32/32/32 30/30/30 29/29/29
f 35/35/35 36/36/36 34/34/34 33/33/33
f 39/39/39 40/40/40 38/38/38 37/37/37
f 43/43/43 44/44/44 42/42/42 41/41/41
f 47/47/47 48/48/48 46/46/46 45/45/45
f 51/51/51 52/52/52 50/50/50 49/49/49
f 55/55/55 56/56/56 54/54/54 53/53/53
f 59/59/59 60/60/60 58/58/58 57/57/57
f 63/63/63 64/64/64 62/62/62 61/61/61
f 65/65/65 66/66/66 67/67/67
f 71/71/71 72/72/72 73/73/73
f 77/77/77 78/78/78 79/79/79
f 83/83/83 84/84/84 85/85/85
f 89/89/89 90/90/90 91/91/91
f 95/95/95 96/96/96 97/97/97
f 101/101/101 102/102/102 103/103/103
f 107/107/107 108/108/108 109/109/109
f 113/113/113 114/114/114 115/115/115
f 119/119/119 120/120/120 121/121/121
f 125/125/125 126/126/126 127/127/127
f 131/131/131 132/132/132 133/133/133
f 137/137/137 138/138/138 139/139/139
f 143/143/143 144/144/144 145/145/145
f 149/149/149 150/150/150 151/151/151
f 155/155/155 156/156/156 157/157/157
f 70/70/70 69/69/69 68/68/68
f 76/76/76 75/75/75 74/74/74
f 82/82/82 81/81/81 80/80/80
f 88/88/88 87/87/87 86/86/86
f 94/94/94 93/93/93 92/92/92
f 100/100/100 99/99/99 98/98/98
f 106/106/106 105/105/105 104/104/104
f 112/112/112 111/111/111 110/110/110
f 118/118/118 117/117/117 116/116/116
f 124/124/124 123/123/123 122/122/122
f 130/130/130 129/129/129 128/128/128
f 136/136/136 135/135/135 134/134/134
f 142/142/142 141/141/141 140/140/140
f 148/148/148 147/147/147 146/146/146
f 154/154/154 153/153/153 152/152/152
f 160/160/160 159/159/159 158/158/158

